# xmcd
#
# Track frame offsets: 
#        150
#        22555
#        42760
#        60495
#        75402
#        91475
#        108792
#        129075
#        151850
#        173245
#
# Disc length: 2623 seconds
#
# Revision: 2
# Processed by: cddbd v1.5.2PL0 Copyright (c) Steve Scherf et al.
# Submitted via: ExactAudioCopyFreeDBPlugin 1.0
#
DISCID=5d0a3d0a
DTITLE=Diane Schuur and B.B. King - Heart To Heart
DYEAR=1994
DGENRE=Blues
TTITLE0=No One Ever Tells You
TTITLE1=I Can't Stop Loving You
TTITLE2=You Don't Know Me
TTITLE3=It Had To Be You
TTITLE4=I'm Putting All My Eggs In One Basket
TTITLE5=Glory Of Love
TTITLE6=Try a Little Tenderness
TTITLE7=Sprit in the Dark
TTITLE8=Freedom
TTITLE9=At Last
EXTD=1994
EXTT0=
EXTT1=
EXTT2=
EXTT3=
EXTT4=
EXTT5=
EXTT6=
EXTT7=
EXTT8=
EXTT9=
PLAYORDER=
